HIERARCHY
ROOT Hips
{
	OFFSET 0.000000 0.000000 0.000000 
	CHANNELS 6 Xposition Yposition Zposition Yrotation Zrotation Xrotation 
	JOINT Lumbar
	{
		OFFSET 0.000000 0.000000 0.000000 
		CHANNELS 3 Zrotation Xrotation Yrotation
		JOINT Neck
		{
			OFFSET 0.000000 0.445665 0.000000 
			CHANNELS 3 Zrotation Xrotation Yrotation
			End Site
			{
				OFFSET 0.000000 0.227535 0.000000 
			}
		}
		JOINT RightShoulder
		{
			OFFSET 0.019635 0.377685 0.194865 
			CHANNELS 3 Zrotation Xrotation Yrotation
			JOINT RightElbow
			{
				OFFSET 0.000000 -0.243375 0.000000 
				CHANNELS 2 Zrotation Yrotation
				JOINT RightWrist
				{
					OFFSET 0.000000 -0.264825 0.000000 
					CHANNELS 2 Zrotation Xrotation
					End Site
					{
						OFFSET 0.006600 -0.176220 0.000990 
					}
				}
			}
		}
		JOINT LeftShoulder
		{
			OFFSET 0.019635 0.377685 -0.194865 
			CHANNELS 3 Zrotation Xrotation Yrotation
			JOINT LeftElbow
			{
				OFFSET 0.000000 -0.243375 0.000000 
				CHANNELS 2 Zrotation Yrotation
				JOINT LeftWrist
				{
					OFFSET 0.000000 -0.264825 0.000000 
					CHANNELS 2 Zrotation Xrotation
					End Site
					{
						OFFSET 0.006600 -0.176220 -0.000990 
					}
				}
			}
		}
	}
	JOINT RightHip
	{
		OFFSET 0.052140 -0.069960 0.075570 
		CHANNELS 3 Zrotation Xrotation Yrotation
		JOINT RightKnee
		{
			OFFSET 0.000000 -0.402270 0.000000 
			CHANNELS 1 Zrotation
			JOINT RightAnkle
			{
				OFFSET 0.000000 -0.404085 0.000000 
				CHANNELS 3 Zrotation Xrotation Yrotation
				End Site
				{
					OFFSET 0.204105 -0.089430 0.008415 
				}
			}
		}
	}
	JOINT LeftHip
	{
		OFFSET 0.052140 -0.069960 -0.075570 
		CHANNELS 3 Zrotation Xrotation Yrotation
		JOINT LeftKnee
		{
			OFFSET 0.000000 -0.402270 0.000000 
			CHANNELS 1 Zrotation
			JOINT LeftAnkle
			{
				OFFSET 0.000000 -0.404085 0.000000 
				CHANNELS 3 Zrotation Xrotation Yrotation
				End Site
				{
					OFFSET 0.204105 -0.089430 -0.008415 
				}
			}
		}
	}
}
MOTION
Frames: 19
Frame Time: 0.02
0.35176 0.81883 -0.44447 206.59332 0 -4.06413 13.55261 18.08585 7.86687 -35.03444 -1.48913 11.04478 98.46919 -4.84917 52.28726 73.82376 142.26476 -63.34131 -12.14737 -56.45794 109.59346 85.62636 96.54904 -97.48257 -74.01262 10.24132 23.35364 2.73545 -20.28681 -59.85269 19.37366 -23.85153 -11.14673 36.01607 30.85729 23.16793 -37.45598 7.26795 4.7696 6.67339
0.35067 0.81867 -0.4437 206.62625 0 -4.01333 13.77505 18.00947 8.07675 -34.36533 -1.86076 10.60538 97.9096 -4.77788 52.21334 73.85374 142.14598 -63.53041 -12.09962 -56.58328 109.58847 85.63795 96.68484 -97.59634 -74.02171 10.22176 23.29503 2.69628 -20.23271 -59.91256 19.37952 -23.91689 -11.2142 36.01117 30.85091 23.20437 -37.59819 7.23825 4.72199 6.56462
0.34951 0.81853 -0.44301 206.68644 0 -3.95793 14.02967 17.88455 8.38315 -33.84664 -2.07608 10.2383 97.42146 -4.78976 52.15749 73.91161 142.18854 -63.63992 -12.11975 -56.74453 109.72296 85.62392 96.78673 -97.75516 -74.02167 10.17785 23.22851 2.65686 -20.19196 -59.96877 19.38503 -23.98696 -11.29192 36.00025 30.83988 23.27366 -37.72276 7.21562 4.64129 6.37737
0.34838 0.81837 -0.44229 206.73498 0 -3.90597 14.26758 17.78075 8.64991 -33.26178 -2.35575 9.84013 96.89983 -4.76627 52.09483 73.96539 142.15638 -63.78463 -12.10849 -56.89214 109.80035 85.62002 96.90553 -97.89256 -74.02358 10.14613 23.16576 2.61934 -20.14564 -60.02505 19.39056 -24.05442 -11.36528 35.99289 30.83126 23.32675 -37.85356 7.19014 4.57641 6.22825
0.34722 0.81821 -0.44153 206.7805 0 -3.84885 14.51572 17.68042 8.89915 -32.67225 -2.66356 9.44203 96.38453 -4.73666 52.02609 73.98506 142.13318 -63.92993 -12.10158 -57.02389 109.86187 85.61452 97.01501 -98.03156 -74.02673 10.10137 23.1017 2.57515 -20.09711 -60.08733 19.39663 -24.1238 -11.43758 35.98235 30.82155 23.38342 -37.99222 7.16344 4.50938 6.07099
0.34613 0.81808 -0.44087 206.83896 0 -3.80129 14.74947 17.56151 9.20632 -32.12763 -2.87616 9.05952 95.87361 -4.73849 51.97413 74.08156 142.12795 -64.05631 -12.10078 -57.19735 109.9858 85.60922 97.13667 -98.1777 -74.02805 10.08069 23.0387 2.54445 -20.05672 -60.13644 19.4015 -24.19021 -11.51434 35.97701 30.81288 23.44087 -38.11003 7.14079 4.43836 5.91081
0.34522 0.818 -0.44047 206.92418 0 -3.77981 14.93769 17.40297 9.66666 -31.65524 -2.85777 8.68425 95.34023 -4.80148 51.9671 74.38479 142.13903 -64.15158 -12.10192 -57.49661 110.24375 85.61198 97.30525 -98.34712 -74.02851 10.1384 22.98066 2.55106 -20.03169 -60.15127 19.40325 -24.24856 -11.6023 35.98618 30.80857 23.49533 -38.17652 7.1283 4.36619 5.76578
0.34439 0.81795 -0.44017 207.02206 0 -3.76824 15.10965 17.22733 10.17906 -31.22479 -2.74991 8.32429 94.81142 -4.89428 51.97584 74.76458 142.16093 -64.23071 -12.1062 -57.83353 110.55873 85.61663 97.48743 -98.5203 -74.02824 10.2213 22.92408 2.5711 -20.01516 -60.15289 19.4038 -24.30357 -11.69423 36.00109 30.80523 23.54912 -38.22217 7.11948 4.29051 5.61926
0.34354 0.81789 -0.43983 207.11538 0 -3.753 15.28769 17.05992 10.65667 -30.78413 -2.68737 7.96779 94.29122 -4.97537 51.97545 75.10716 142.17378 -64.31676 -12.10773 -58.14191 110.84898 85.62091 97.65984 -98.68226 -74.02819 10.29012 22.8668 2.58493 -19.99715 -60.15982 19.40485 -24.35927 -11.78329 36.01407 30.80135 23.60173 -38.27614 7.1085 4.21532 5.47082
0.34264 0.81783 -0.43946 207.20387 0 -3.73423 15.4729 16.88961 11.18437 -30.31153 -2.60049 7.56975 93.72861 -5.04876 51.98396 75.45787 142.21061 -64.40202 -12.1175 -58.50121 111.13997 85.62258 97.84367 -98.88444 -74.02813 10.36927 22.8092 2.59936 -19.96925 -60.16937 19.40609 -24.41854 -11.87679 36.02358 30.79829 23.66203 -38.33464 7.09989 4.14427 5.33163
0.34185 0.81778 -0.43917 207.30602 0 -3.72507 15.63825 16.721 11.61916 -29.91334 -2.54413 7.26118 93.25426 -5.14781 51.97745 75.81334 142.19685 -64.48577 -12.10966 -58.76102 111.44021 85.62991 98.01051 -99.00496 -74.02806 10.43297 22.75296 2.61556 -19.96416 -60.1706 19.40663 -24.46964 -11.96237 36.04224 30.7931 23.70535 -38.37865 7.08709 4.06341 5.17261
0.34128 0.81779 -0.43905 207.43466 0 -3.74143 15.7578 16.56914 11.78146 -29.71035 -2.60318 7.19267 93.02432 -5.27909 51.92526 76.12988 142.04911 -64.57298 -12.05456 -58.75361 111.75899 85.65806 98.10104 -98.88376 -74.02846 10.45091 22.69811 2.63502 -20.01705 -60.15015 19.40569 -24.49786 -12.02062 36.08109 30.7876 23.70367 -38.39052 7.06179 3.96365 4.97054
0.34082 0.81783 -0.43901 207.5781 0 -3.767 15.85666 16.41832 11.84857 -29.57997 -2.69529 7.21367 92.88246 -5.44071 51.85721 76.4548 141.84745 -64.65897 -11.98081 -58.64163 112.08333 85.69119 98.17923 -98.68287 -74.02889 10.45219 22.64503 2.65561 -20.09319 -60.12213 19.40405 -24.51813 -12.07156 36.12991 30.77868 23.68345 -38.38808 7.03204 3.8532 4.7473
0.34032 0.81785 -0.43894 207.71982 0 -3.78731 15.9617 16.26217 11.96089 -29.41567 -2.76671 7.19572 92.69861 -5.6084 51.79679 76.79738 141.66445 -64.74348 -11.91392 -58.56622 112.3995 85.71814 98.28012 -98.52835 -74.02913 10.45905 22.59251 2.67444 -20.16038 -60.09889 19.40261 -24.54283 -12.12873 36.1763 30.76781 23.67168 -38.39043 7.00437 3.74264 4.52612
0.33978 0.81788 -0.43884 207.8404 0 -3.812 16.08042 16.12605 12.0669 -29.25709 -2.85798 7.17197 92.52281 -5.69282 51.7359 77.05135 141.50758 -64.83584 -11.85429 -58.53781 112.74053 85.7606 98.30858 -98.33128 -74.03 10.47449 22.53421 2.69849 -20.22058 -60.06966 19.40161 -24.56411 -12.17372 36.21302 30.77255 23.66387 -38.39929 6.97685 3.65176 4.33486
0.33936 0.81789 -0.43883 208.00892 0 -3.83022 16.16515 15.94849 12.16271 -29.10295 -2.91802 7.18022 92.35164 -5.95812 51.67107 77.49173 141.2821 -64.91196 -11.77473 -58.38688 113.03166 85.77326 98.48569 -98.20366 -74.02965 10.46866 22.48844 2.71238 -20.30133 -60.05112 19.39954 -24.59047 -12.24236 36.27342 30.74294 23.63834 -38.39144 6.94757 3.51887 4.07865
0.33924 0.81782 -0.43906 208.30122 0 -3.8232 16.16768 15.6581 12.25355 -28.94593 -2.87499 7.26453 92.16712 -6.70936 51.60716 78.43655 140.89089 -64.94213 -11.64731 -57.91619 113.17096 85.69052 99.06844 -98.28904 -74.02546 10.40026 22.47598 2.69269 -20.42827 -60.06526 19.39493 -24.63451 -12.37725 36.3856 30.62848 23.61281 -38.34124 6.91756 3.25993 3.62797
0.33924 0.81772 -0.43939 208.6419 0 -3.81025 16.13549 15.32574 12.33717 -28.7903 -2.80148 7.37621 91.98528 -7.64215 51.53833 79.56933 140.43067 -64.95628 -11.50004 -57.32652 113.26145 85.57964 99.8024 -98.44675 -74.02013 10.31226 22.47619 2.66368 -20.57593 -60.09017 19.38922 -24.6836 -12.5362 36.52307 30.47819 23.56257 -38.27471 6.88541 2.96145 3.11646
0.3392 0.81764 -0.43969 208.96393 0 -3.80328 16.11501 15.01139 12.4238 -28.63187 -2.74817 7.46875 91.80489 -8.49622 51.46642 80.62175 139.99482 -64.97884 -11.36003 -56.79622 113.38284 85.48967 100.47244 -98.57016 -74.01565 10.23841 22.47115 2.64229 -20.71734 -60.10941 19.38385 -24.72932 -12.68488 36.65655 30.33788 23.49357 -38.21563 6.85217 2.68936 2.64614
